<?xml version="1.0" standalone="no"?>
<!DOCTYPE svg PUBLIC "-//W3C//DTD SVG 20010904//EN"
 "http://www.w3.org/TR/2001/REC-SVG-20010904/DTD/svg10.dtd">
<svg version="1.0" xmlns="http://www.w3.org/2000/svg"
 width="1024.000000pt" height="1024.000000pt" viewBox="0 0 1024.000000 1024.000000"
 preserveAspectRatio="xMidYMid meet">

<g transform="translate(0.000000,1024.000000) scale(0.100000,-0.100000)"
fill="#000000" stroke="none">
<path d="M0 5120 l0 -5120 5120 0 5120 0 0 5120 0 5120 -5120 0 -5120 0 0
-5120z m5781 2640 c23 -23 29 -35 24 -52 -4 -13 -47 -113 -95 -223 -121 -276
-257 -590 -395 -915 -65 -151 -158 -367 -207 -480 -50 -113 -121 -277 -158
-365 -37 -88 -76 -180 -87 -205 -52 -115 -213 -498 -213 -507 0 -11 -43 -53
-53 -53 -6 0 -1 8 11 18 11 10 36 56 55 102 19 47 54 130 77 185 23 55 59 141
80 190 88 211 141 335 175 415 20 47 38 92 41 100 5 17 -45 -83 -63 -126 -7
-16 -40 -92 -74 -169 -74 -167 -135 -312 -194 -455 -24 -58 -50 -118 -59 -135
-9 -16 -16 -35 -16 -41 0 -5 -10 -21 -21 -33 -16 -16 -24 -20 -29 -11 -4 7
-10 8 -13 3 -3 -5 -80 -8 -171 -7 -101 1 -166 -3 -166 -9 0 -5 -9 1 -21 14
-11 13 -17 18 -13 10 6 -11 3 -13 -12 -7 -16 6 -16 4 4 -16 21 -22 31 -23 210
-28 l187 -6 -177 -2 c-97 -1 -188 2 -202 8 -14 5 -33 21 -42 35 -16 25 -15 28
31 133 44 99 332 764 395 912 15 36 50 115 77 175 28 61 94 209 147 330 54
121 117 263 141 315 24 52 122 277 219 500 97 223 184 411 193 418 12 8 69 12
201 12 l184 0 29 -30z m317 -432 c46 -41 430 -399 832 -777 102 -96 190 -184
197 -195 7 -12 12 -34 13 -50 0 -35 -25 -61 -385 -395 -44 -41 -154 -144 -245
-230 -91 -86 -174 -163 -185 -170 -23 -16 6 13 245 238 342 324 331 313 317
330 -11 14 -10 14 6 2 16 -12 28 -4 122 90 58 57 105 107 105 113 0 5 -9 -1
-19 -13 -11 -13 -25 -20 -31 -16 -6 3 -9 3 -8 -2 2 -4 0 -8 -3 -8 -12 0 -39
-27 -34 -35 2 -4 -10 -20 -28 -36 -18 -17 -24 -19 -13 -6 11 12 16 25 13 28
-3 4 -15 -9 -26 -27 -12 -19 -22 -32 -24 -29 -1 3 -20 -9 -41 -27 -21 -17 -36
-35 -33 -41 4 -5 -8 -22 -26 -38 l-32 -29 29 33 c47 51 17 37 -40 -19 -34 -33
-51 -57 -47 -68 4 -13 3 -13 -5 -2 -8 11 -11 11 -18 -1 -5 -8 -24 -24 -42 -37
-21 -14 -31 -29 -28 -38 3 -8 1 -11 -4 -8 -13 8 -52 -33 -44 -47 5 -7 3 -8 -5
-3 -14 8 -63 -33 -55 -47 3 -5 0 -7 -7 -6 -7 2 -13 -2 -14 -9 0 -7 -7 -18 -15
-25 -12 -11 -12 -11 -1 5 7 9 10 17 6 17 -13 0 -164 -153 -160 -161 3 -4 -3
-13 -12 -20 -12 -10 -14 -10 -9 -1 4 6 4 12 -1 12 -15 0 -153 -146 -146 -154
5 -4 1 -6 -7 -4 -8 2 -14 -3 -12 -10 1 -8 -1 -11 -6 -8 -4 2 -25 -11 -45 -29
-21 -19 -46 -39 -56 -44 -28 -16 -369 -15 -387 0 -12 10 -12 14 -2 20 10 7 9
9 -4 9 -21 0 -22 -10 -6 -44 16 -36 35 -40 191 -38 87 1 137 -2 137 -8 0 -6
-50 -10 -132 -10 -150 0 -195 13 -212 62 -16 46 16 97 128 200 55 51 137 127
181 168 119 111 343 321 488 456 130 121 175 183 162 223 -5 17 -54 65 -294
286 -24 22 -105 99 -180 171 -165 158 -249 234 -259 234 -4 0 1 -7 10 -14 10
-7 16 -16 13 -19 -3 -4 -2 -5 1 -3 10 8 74 -56 67 -67 -3 -6 -2 -7 4 -4 5 3
27 -11 47 -32 24 -24 34 -41 27 -45 -6 -4 -14 -1 -17 7 -3 8 -19 24 -37 37
-26 19 -23 14 12 -23 41 -41 46 -44 58 -29 12 15 12 15 6 -2 -4 -12 -3 -17 4
-13 13 8 65 -46 61 -64 -2 -8 4 -13 13 -11 8 1 28 -13 45 -30 16 -18 20 -25 8
-15 -11 9 -25 17 -30 17 -5 -1 87 -94 204 -208 135 -132 212 -215 212 -227 0
-15 -4 -12 -16 11 -8 17 -63 76 -122 130 -107 99 -216 201 -392 370 -52 49
-124 117 -159 150 -64 59 -91 103 -91 147 0 40 61 149 112 200 40 40 53 47 87
47 32 0 49 -8 89 -42z m-1588 19 c32 -16 70 -73 70 -105 0 -20 -39 -64 -176
-196 -98 -94 -183 -170 -190 -170 -7 1 -11 -4 -9 -10 4 -15 -404 -401 -422
-400 -8 1 -12 -1 -8 -4 3 -3 -22 -34 -56 -68 -54 -54 -62 -68 -63 -101 -1 -37
5 -43 239 -263 344 -322 365 -343 365 -371 0 -38 -120 -269 -146 -281 -45 -21
-67 -5 -344 256 -42 39 -207 194 -367 344 -160 150 -294 280 -297 288 -3 9 -6
30 -6 47 0 32 34 70 205 227 257 235 574 529 702 648 85 79 168 150 186 157
42 19 281 20 317 2z m1770 -672 c20 -24 6 -28 -15 -5 -10 11 -13 20 -8 20 6 0
16 -7 23 -15z m660 -549 c0 -2 -8 -10 -17 -17 -16 -13 -17 -12 -4 4 13 16 21
21 21 13z m-745 -741 c-60 -58 -113 -105 -117 -105 -5 0 9 15 29 34 21 19 72
66 113 105 41 39 77 71 80 70 3 0 -44 -47 -105 -104z m-150 -115 c-27 -12 -43
-12 -25 0 8 5 22 9 30 9 10 0 8 -3 -5 -9z m-3544 -948 c36 -10 95 -35 131 -55
65 -36 199 -152 219 -189 12 -22 3 -40 -10 -20 -5 9 -31 -5 -87 -48 -43 -33
-87 -60 -96 -60 -9 0 -34 21 -55 46 -69 85 -170 127 -298 127 -159 -1 -293
-99 -357 -262 -18 -47 -22 -77 -22 -181 l-1 -125 40 -80 c32 -62 48 -84 75
-97 19 -10 31 -18 26 -18 -5 0 1 -11 13 -24 13 -14 29 -22 36 -20 7 3 16 1 20
-5 3 -6 10 -11 15 -11 5 0 -18 25 -50 56 -33 31 -62 65 -65 75 -4 11 -10 17
-14 15 -4 -3 -7 3 -7 12 0 9 -4 28 -7 42 -4 14 6 0 22 -30 37 -70 97 -131 159
-161 40 -20 63 -24 147 -24 87 0 107 3 155 26 30 14 77 49 105 77 30 32 58 52
71 52 23 0 98 -55 149 -110 17 -18 24 -30 15 -29 -8 2 -44 -25 -80 -61 -73
-73 -147 -116 -264 -154 -336 -110 -667 64 -768 404 -28 93 -34 264 -14 359
51 240 240 433 476 486 82 19 230 13 321 -13z m2307 20 c10 -7 12 -140 10
-633 l-3 -624 -112 -3 -113 -3 0 52 0 51 -38 -39 c-131 -135 -362 -117 -514
39 -144 147 -177 404 -78 605 36 73 115 149 197 189 46 23 74 29 147 32 112 5
183 -18 245 -78 l41 -40 0 224 c0 170 3 226 13 229 20 9 191 7 205 -1z m1694
-3 c133 -28 230 -115 269 -240 45 -144 1 -281 -109 -338 l-33 -17 40 -17 c82
-37 155 -134 170 -228 16 -98 -27 -247 -92 -317 -28 -30 -91 -66 -152 -85 -73
-24 -657 -29 -679 -7 -12 13 -15 110 -22 626 -3 336 -4 617 0 623 10 15 535
15 608 0z m2118 2 c10 -7 15 -36 18 -105 4 -80 1 -100 -14 -123 -15 -24 -404
-545 -538 -720 -26 -34 -51 -65 -57 -68 -17 -11 -10 -27 9 -20 29 12 560 25
588 15 24 -10 25 -11 22 -117 l-3 -108 -29 -10 c-22 -8 -30 -7 -34 3 -3 10
-86 12 -403 12 -219 -1 -403 1 -409 5 -5 3 -10 23 -10 43 0 47 -18 112 -30
112 -6 0 -10 -31 -10 -68 0 -92 11 -105 92 -113 l63 -6 -58 -1 c-49 -2 -62 2
-82 23 -23 22 -25 32 -25 115 0 105 -11 82 144 295 60 83 138 189 173 238 155
214 196 267 203 262 19 -12 81 87 65 103 -4 4 -90 8 -191 10 -137 3 -184 1
-184 -8 0 -9 41 -10 168 -5 123 5 164 4 156 -4 -7 -8 -84 -11 -255 -9 l-244 3
-3 94 c-3 101 8 134 51 151 29 12 808 12 827 1z m-366 -306 c-9 -14 -19 -23
-22 -20 -5 4 26 45 35 45 2 0 -4 -11 -13 -25z m-4733 -49 c145 -51 250 -160
293 -305 9 -30 16 -62 15 -70 0 -9 -7 6 -14 32 -7 27 -16 52 -20 55 -4 4 -3
-7 2 -23 16 -58 9 -246 -11 -308 -46 -140 -148 -239 -297 -288 -216 -70 -457
29 -559 230 -84 167 -56 407 64 547 116 135 350 193 527 130z m1986 3 c127
-42 232 -150 270 -277 17 -58 24 -211 11 -244 -7 -17 -32 -18 -333 -18 -179 0
-325 -2 -325 -5 0 -16 42 -84 67 -107 93 -88 234 -89 357 -1 l49 35 71 -71 70
-70 -20 -28 c-32 -43 -113 -101 -174 -124 -67 -26 -194 -35 -273 -20 -118 22
-245 109 -304 209 -14 23 -34 69 -44 102 -83 266 35 535 271 620 78 28 224 27
307 -1z m1614 -39 c10 -25 59 -164 109 -310 50 -146 93 -271 95 -279 11 -30
13 -3 3 36 -12 49 -12 47 100 365 90 255 78 243 238 236 127 -5 135 -13 101
-99 -42 -105 -90 -231 -186 -482 -199 -520 -257 -643 -293 -621 -6 4 -8 3 -5
-2 9 -15 -3 -28 -51 -58 -55 -34 -194 -48 -227 -23 -20 15 -20 16 0 14 18 -2
19 3 17 53 -3 60 -19 120 -32 120 -5 0 -11 -26 -13 -57 l-3 -58 -2 60 c-1 37
3 66 10 73 7 7 35 12 62 12 28 0 56 4 61 8 22 16 48 53 61 89 13 34 14 35 10
8 -3 -17 -1 -37 4 -45 7 -11 13 -6 25 23 18 45 19 41 -50 217 -29 74 -83 212
-120 305 -141 362 -159 405 -167 405 -11 0 -10 -17 1 -24 5 -3 12 -18 16 -33
6 -28 29 -88 135 -358 78 -200 121 -318 116 -322 -2 -3 -13 20 -24 49 -11 29
-37 96 -57 148 -141 359 -215 554 -215 565 0 23 53 34 159 32 l105 -2 17 -45z
m-5134 -372 c-3 -8 -6 -5 -6 6 -1 11 2 17 5 13 3 -3 4 -12 1 -19z m10 -40 c-3
-8 -6 -5 -6 6 -1 11 2 17 5 13 3 -3 4 -12 1 -19z m104 -205 c13 -16 12 -17 -3
-4 -17 13 -22 21 -14 21 2 0 10 -8 17 -17z m6237 -250 c-82 -2 -214 -2 -295 0
-82 1 -15 3 147 3 162 0 229 -2 148 -3z m-1348 -338 c0 -5 -5 -3 -10 5 -5 8
-10 20 -10 25 0 6 5 3 10 -5 5 -8 10 -19 10 -25z"/>
<path d="M5066 6060 c-22 -56 -19 -65 5 -11 11 24 18 46 15 48 -2 2 -11 -14
-20 -37z"/>
<path d="M4705 5349 c-4 -6 -5 -12 -2 -15 2 -3 7 2 10 11 7 17 1 20 -8 4z"/>
<path d="M4680 5299 c-6 -11 -10 -25 -7 -32 2 -6 9 3 15 21 12 36 8 42 -8 11z"/>
<path d="M4302 5231 c-6 -17 -9 -31 -6 -31 7 0 25 52 20 57 -2 2 -8 -10 -14
-26z"/>
<path d="M4637 5198 c-13 -29 -27 -65 -31 -80 -3 -15 -13 -34 -22 -42 -8 -9
-12 -20 -9 -26 4 -7 -54 -10 -169 -10 l-175 0 10 32 c5 17 7 33 5 35 -4 4 -26
-54 -26 -69 0 -5 82 -7 181 -6 l182 3 44 104 c46 109 54 149 10 59z"/>
<path d="M4267 5155 c-9 -19 -13 -35 -8 -35 9 0 34 60 28 66 -2 2 -11 -12 -20
-31z"/>
<path d="M6085 6822 c17 -17 32 -29 34 -26 6 6 -20 34 -43 46 -15 8 -12 2 9
-20z"/>
<path d="M6150 6760 c0 -5 5 -10 10 -10 6 0 10 5 10 10 0 6 -4 10 -10 10 -5 0
-10 -4 -10 -10z"/>
<path d="M6889 6143 c-13 -16 -12 -17 4 -4 9 7 17 15 17 17 0 8 -8 3 -21 -13z"/>
<path d="M6809 6063 l-24 -28 28 24 c15 14 27 26 27 28 0 8 -8 1 -31 -24z"/>
<path d="M6763 6028 c-22 -29 -24 -41 -3 -20 12 13 20 25 17 28 -2 2 -9 -1
-14 -8z"/>
<path d="M6609 5875 c-62 -57 -117 -101 -122 -98 -6 3 -7 1 -3 -6 4 -6 0 -14
-8 -17 -9 -3 -13 -10 -10 -15 8 -13 -10 -11 -26 4 -12 10 -12 9 -2 -4 10 -13
8 -19 -6 -33 -10 -9 -22 -13 -26 -9 -4 5 -6 1 -4 -7 2 -11 -6 -15 -29 -14 -17
0 -30 -3 -27 -7 2 -4 -2 -10 -8 -13 -7 -3 -2 -3 12 0 23 6 21 3 -15 -34 -29
-31 -42 -38 -52 -30 -19 15 -41 -6 -37 -38 3 -28 -22 -43 -62 -38 -18 2 -22
-2 -18 -20 3 -19 0 -21 -41 -18 -28 3 -45 0 -45 -7 0 -6 -18 -11 -41 -11 -36
0 -40 -2 -34 -20 6 -19 2 -20 -79 -20 l-86 0 0 -35 c0 -34 -1 -35 -38 -35 -21
0 -47 6 -57 14 -19 14 -19 15 0 38 l20 23 -22 -19 c-27 -22 -30 -51 -7 -60 28
-11 304 -7 327 5 33 17 107 91 101 101 -3 5 -1 7 4 6 16 -5 100 78 99 97 -1
10 5 20 13 23 13 5 13 3 0 -13 -44 -53 28 9 192 166 101 97 201 192 223 212
22 20 37 37 33 37 -4 0 -57 -47 -119 -105z m-389 -368 c0 -2 -10 -12 -22 -23
l-23 -19 19 23 c18 21 26 27 26 19z m-122 -84 c-6 -7 -14 -10 -19 -7 -15 9
-10 20 10 20 15 0 17 -3 9 -13z m51 15 c-2 -2 -17 -14 -34 -28 l-30 -25 24 28
c14 15 29 27 34 27 6 0 8 -1 6 -2z"/>
<path d="M6134 5768 l-19 -23 23 19 c21 18 27 26 19 26 -2 0 -12 -10 -23 -22z"/>
<path d="M6054 5699 c-19 -22 -19 -22 4 -8 12 8 22 17 22 21 0 12 -6 9 -26
-13z"/>
<path d="M5919 5573 c-40 -38 -88 -83 -107 -100 -24 -23 -30 -33 -18 -33 9 0
16 5 16 10 0 6 5 10 11 10 5 0 8 -4 5 -8 -3 -5 1 -9 9 -9 18 0 20 14 3 19 -8
3 -1 16 19 37 18 18 37 29 43 26 6 -4 9 -2 8 4 -2 6 19 33 46 61 70 72 50 62
-35 -17z"/>
<path d="M5896 5455 c-3 -8 -1 -15 4 -15 6 0 10 7 10 15 0 8 -2 15 -4 15 -2 0
-6 -7 -10 -15z"/>
<path d="M4480 7186 c0 -2 7 -7 16 -10 8 -3 12 -2 9 4 -6 10 -25 14 -25 6z"/>
<path d="M4419 7093 l-24 -28 28 24 c25 23 32 31 24 31 -2 0 -14 -12 -28 -27z"/>
<path d="M4329 7063 l-34 -36 31 21 c36 24 61 52 47 52 -5 0 -25 -16 -44 -37z"/>
<path d="M4132 6872 c-121 -117 -150 -150 -142 -162 5 -8 10 -12 11 -7 1 4 2
11 3 15 2 13 33 42 39 36 11 -12 -5 -33 -21 -27 -12 3 -13 2 -4 -4 10 -7 8
-13 -7 -27 -14 -13 -20 -14 -23 -4 -3 9 -9 5 -17 -10 -18 -33 3 -27 49 14 32
29 39 41 34 60 -5 19 -3 23 10 18 9 -3 13 -11 9 -18 -3 -6 8 2 25 18 18 17 32
32 32 35 0 2 -11 -6 -24 -18 -15 -14 -26 -19 -31 -12 -8 14 3 33 16 26 5 -4 9
0 9 7 0 7 45 57 101 110 55 54 97 98 92 98 -4 0 -77 -67 -161 -148z"/>
<path d="M4270 6951 c-8 -6 -18 -7 -24 -4 -5 3 -6 1 -2 -5 5 -9 13 -9 27 -2
10 6 19 13 19 15 0 7 -3 6 -20 -4z"/>
<path d="M4173 6873 c4 -3 -1 -16 -10 -27 -18 -21 -18 -21 4 -2 20 16 23 36 6
36 -4 0 -3 -3 0 -7z"/>
<path d="M3903 6659 c-36 -35 -60 -66 -56 -72 3 -7 3 -9 -2 -5 -4 4 -19 -2
-33 -13 -35 -27 -196 -181 -205 -195 -4 -7 -2 -26 4 -43 l11 -32 23 33 c12 18
22 44 21 58 -1 16 4 24 13 22 8 -2 11 3 8 12 -7 17 35 58 54 53 8 -2 11 -2 6
0 -12 7 56 73 76 73 12 0 16 4 11 13 -4 6 -3 9 1 4 5 -4 17 0 27 10 10 9 18
12 17 7 0 -5 -22 -27 -47 -49 -26 -22 -38 -30 -28 -17 11 12 14 22 9 22 -15 0
-30 -22 -30 -42 0 -27 8 -23 65 35 47 47 68 78 43 62 -16 -9 -22 12 -7 24 11
9 15 8 20 -5 6 -15 8 -15 26 1 14 13 17 22 10 34 -6 13 -3 22 16 36 23 17 32
35 17 35 -5 0 -36 -28 -70 -61z m31 -18 c3 -5 -2 -15 -11 -22 -12 -10 -14 -10
-9 -1 4 7 2 12 -4 12 -6 0 -8 5 -5 10 8 12 22 13 29 1z m-291 -258 c-4 -11 -3
-14 5 -9 7 4 12 3 12 -3 0 -5 -9 -9 -19 -8 -16 1 -18 5 -10 19 12 23 20 24 12
1z m-3 -43 c0 -5 -5 -10 -11 -10 -5 0 -7 5 -4 10 3 6 8 10 11 10 2 0 4 -4 4
-10z"/>
<path d="M3709 6443 c-13 -16 -12 -17 4 -4 16 13 21 21 13 21 -2 0 -10 -8 -17
-17z"/>
<path d="M3710 6417 l-34 -42 42 40 c23 21 42 40 42 42 0 12 -20 -5 -50 -40z"/>
<path d="M4160 5493 c-28 -40 -52 -94 -46 -100 4 -4 19 21 60 95 25 46 16 49
-14 5z"/>
<path d="M1712 3655 c0 -16 2 -22 5 -12 2 9 2 23 0 30 -3 6 -5 -1 -5 -18z"/>
<path d="M1790 3364 c0 -5 7 -18 15 -28 8 -11 15 -16 15 -10 0 5 -7 18 -15 28
-8 11 -15 16 -15 10z"/>
<path d="M2237 3269 c7 -7 15 -10 18 -7 3 3 -2 9 -12 12 -14 6 -15 5 -6 -5z"/>
<path d="M1866 3255 c4 -9 16 -21 28 -27 19 -10 19 -9 -3 16 -28 30 -33 32
-25 11z"/>
<path d="M2305 3210 l-80 -6 85 -1 c47 -1 94 2 105 7 24 10 18 10 -110 0z"/>
<path d="M1930 3196 c0 -2 8 -10 18 -17 15 -13 16 -12 3 4 -13 16 -21 21 -21
13z"/>
<path d="M1984 3156 c11 -9 27 -16 35 -15 14 0 14 1 1 6 -8 3 -24 10 -35 15
-20 9 -20 9 -1 -6z"/>
<path d="M2105 3100 c3 -5 14 -10 23 -10 15 0 15 2 2 10 -20 13 -33 13 -25 0z"/>
<path d="M4273 3774 c-52 -19 -115 -88 -131 -143 -29 -96 -13 -184 50 -274 45
-63 165 -93 256 -63 100 33 147 122 140 260 -4 72 -9 92 -34 132 -53 86 -179
125 -281 88z"/>
<path d="M6130 3975 l0 -155 143 0 c159 0 199 12 227 66 16 32 19 108 6 139
-7 16 -6 18 3 9 7 -7 17 -36 21 -65 l9 -54 -3 64 c-2 59 -5 66 -38 97 -49 44
-91 54 -240 54 l-128 0 0 -155z"/>
<path d="M6130 3458 l0 -163 172 3 c152 3 177 6 206 24 53 32 78 102 62 172
-6 29 -6 36 3 27 7 -7 12 -40 12 -76 0 -41 3 -58 9 -48 4 8 6 42 4 74 -5 66
-21 89 -83 122 -35 19 -61 22 -212 25 l-173 4 0 -164z"/>
<path d="M7768 4182 c-2 -18 -1 -32 3 -32 15 0 19 18 10 41 -8 22 -8 22 -13
-9z"/>
<path d="M7750 4119 c0 -12 24 -22 45 -17 12 2 7 7 -14 15 -18 6 -31 7 -31 2z"/>
<path d="M3246 3770 c-58 -23 -90 -51 -119 -105 -32 -58 -32 -212 0 -271 42
-79 133 -134 218 -133 l50 2 -64 8 c-63 8 -141 47 -141 70 0 5 15 -2 34 -16
119 -91 307 -29 350 115 57 191 -43 350 -219 349 -35 0 -81 -8 -109 -19z
m-109 -322 c-3 -8 -6 -5 -6 6 -1 11 2 17 5 13 3 -3 4 -12 1 -19z m27 -55 c9
-18 14 -33 12 -33 -6 0 -36 55 -36 66 0 11 5 3 24 -33z"/>
<path d="M2902 3545 c0 -16 2 -22 5 -12 2 9 2 23 0 30 -3 6 -5 -1 -5 -18z"/>
<path d="M2911 3420 c0 -8 4 -22 9 -30 12 -18 12 -2 0 25 -6 13 -9 15 -9 5z"/>
<path d="M5255 3791 c-22 -10 -52 -31 -67 -47 -25 -27 -58 -91 -58 -114 0 -6
75 -10 220 -10 247 0 237 -4 201 75 -22 48 -54 79 -103 100 -51 21 -143 19
-193 -4z"/>
<path d="M5420 3260 c-23 -7 -23 -8 -3 -9 12 -1 25 4 28 9 3 6 5 10 3 9 -2 -1
-14 -5 -28 -9z"/>
<path d="M7048 2713 c17 -2 47 -2 65 0 17 2 3 4 -33 4 -36 0 -50 -2 -32 -4z"/>
</g>
</svg>
