<?xml version="1.0" standalone="no"?>
<!DOCTYPE svg PUBLIC "-//W3C//DTD SVG 20010904//EN"
 "http://www.w3.org/TR/2001/REC-SVG-20010904/DTD/svg10.dtd">
<svg version="1.0" xmlns="http://www.w3.org/2000/svg"
 width="300.000000pt" height="300.000000pt" viewBox="0 0 300.000000 300.000000"
 preserveAspectRatio="xMidYMid meet">
<metadata>
Created by potrace 1.10, written by Peter Selinger 2001-2011
</metadata>
<g transform="translate(0.000000,300.000000) scale(0.100000,-0.100000)"
fill="#000000" stroke="none">
<path d="M1604 2300 c-41 -6 -74 -28 -74 -49 0 -6 -36 -85 -80 -176 -44 -91
-80 -171 -80 -180 0 -8 -4 -15 -10 -15 -5 0 -10 -6 -10 -14 0 -26 -70 -166
-83 -166 -7 0 -45 32 -85 71 -78 76 -80 85 -27 127 14 11 25 25 25 31 0 6 4
11 9 11 15 0 151 138 160 163 9 23 -1 55 -23 69 -16 11 -81 10 -113 -3 -15 -6
-57 -38 -93 -72 -36 -34 -98 -92 -137 -129 -100 -94 -113 -123 -73 -166 12
-12 17 -22 13 -22 -4 -1 3 -10 17 -21 14 -11 61 -55 105 -98 44 -43 99 -89
123 -103 23 -13 39 -27 36 -30 -3 -4 -8 -20 -10 -36 -7 -45 26 -72 87 -72 27
0 59 5 73 11 26 12 69 86 81 138 4 17 11 31 16 31 5 0 9 6 9 13 0 8 6 27 14
43 8 16 35 76 60 134 97 228 118 275 126 283 4 5 19 -7 31 -26 13 -19 56 -63
94 -98 77 -69 94 -88 95 -106 0 -6 -28 -37 -62 -70 -195 -183 -204 -197 -161
-245 14 -16 27 -18 75 -14 33 2 66 10 75 18 118 96 313 295 313 317 0 25 -162
190 -297 302 -37 31 -53 38 -73 34 -14 -4 -28 -12 -32 -18 -5 -8 -11 -8 -17
-2 -7 7 -5 26 6 58 10 31 12 52 6 58 -16 16 -67 25 -109 19z m96 -32 c0 -7
-78 -194 -172 -415 l-173 -403 -67 0 c-37 0 -69 4 -72 9 -3 4 16 57 43 117 55
123 264 596 292 662 l18 42 66 0 c45 0 65 -4 65 -12z m-370 -123 c15 -18 5
-49 -11 -39 -7 4 -9 3 -6 -3 4 -6 -48 -63 -114 -128 -90 -86 -124 -113 -130
-103 -6 10 -9 8 -9 -7 0 -12 36 -55 97 -112 l97 -92 -22 -46 c-12 -25 -27 -45
-33 -45 -21 0 -290 262 -287 280 2 10 74 83 162 164 152 140 160 146 201 146
25 0 48 -6 55 -15z m604 -134 c86 -80 156 -153 156 -162 0 -9 -71 -83 -157
-163 l-157 -147 -60 3 c-45 2 -62 7 -64 18 -1 10 54 69 135 145 76 71 141 137
145 148 5 11 4 16 -2 12 -8 -5 -196 164 -222 200 -12 16 -9 27 12 63 14 22 27
32 39 30 10 -2 89 -68 175 -147z"/>
<path d="M1210 2015 c-41 -41 -72 -75 -69 -75 2 0 38 34 79 75 41 41 72 75 69
75 -2 0 -38 -34 -79 -75z"/>
<path d="M647 1299 c-110 -17 -182 -105 -179 -220 3 -107 54 -177 150 -205 64
-19 123 -8 185 32 l38 25 33 -26 c48 -36 124 -47 173 -25 21 9 47 27 57 39 25
27 40 27 56 -4 17 -32 99 -61 138 -47 15 5 44 7 65 4 30 -3 43 1 63 18 22 21
25 22 41 7 32 -28 107 -41 158 -27 24 7 46 18 49 26 8 20 30 17 51 -6 16 -18
30 -20 104 -19 107 2 159 22 186 72 22 41 29 40 45 -9 11 -32 10 -37 -14 -59
-31 -28 -33 -61 -6 -93 17 -21 23 -22 57 -12 53 15 66 27 100 93 l29 58 27
-24 c26 -22 34 -23 149 -20 70 2 127 8 135 14 15 13 18 85 3 94 -5 3 -32 9
-60 12 -40 5 -50 10 -50 24 0 11 3 19 8 19 7 0 49 58 54 75 1 6 12 19 24 30
11 11 19 25 17 32 -2 6 1 14 6 18 16 9 13 71 -3 85 -21 16 -239 17 -265 1 -8
-5 -17 -26 -20 -47 -5 -32 -11 -39 -37 -46 -24 -6 -35 -17 -47 -49 -18 -46
-29 -44 -55 8 -14 30 -26 39 -65 50 -35 10 -50 21 -57 39 -13 34 -68 55 -162
62 -104 7 -128 -8 -128 -77 0 -26 -3 -51 -6 -54 -4 -3 -25 4 -48 17 -46 26
-91 27 -152 1 -44 -18 -54 -10 -54 46 0 38 -19 62 -57 73 -27 9 -73 -38 -73
-74 0 -22 -5 -25 -40 -27 -44 -3 -100 -27 -113 -49 -12 -20 -32 -17 -64 10
-96 80 -244 32 -274 -89 -8 -33 -16 -45 -30 -45 -10 0 -36 -9 -58 -20 -52 -28
-88 -19 -107 26 -19 46 -17 77 7 108 25 32 64 34 114 5 31 -18 39 -20 65 -9
29 12 47 42 41 69 -4 19 -111 102 -111 86 0 -2 -10 -1 -22 3 -13 5 -45 5 -71
1z m123 -49 c33 -17 78 -57 69 -63 -53 -31 -74 -35 -82 -13 -3 8 -24 20 -45
27 -35 10 -45 9 -79 -7 -27 -13 -37 -24 -35 -38 2 -10 -1 -15 -6 -12 -6 4 -8
-3 -5 -16 4 -19 3 -20 -6 -8 -12 17 -7 -30 11 -87 21 -71 101 -95 156 -48 35
30 40 30 64 8 28 -25 22 -38 -29 -66 -97 -52 -176 -45 -236 23 -73 79 -71 196
3 270 60 60 139 70 220 30z m640 -150 c0 -99 0 -183 0 -187 0 -5 -15 -9 -35
-11 -19 -2 -35 1 -35 7 0 5 -12 4 -27 -5 -35 -18 -57 -18 -93 1 -86 44 -105
155 -39 230 40 45 86 55 134 26 l35 -20 -6 54 c-8 70 -2 85 36 85 l30 0 0
-180z m501 170 c46 -13 68 -38 76 -84 4 -29 1 -44 -15 -66 -18 -24 -19 -29 -6
-34 8 -3 22 -22 30 -42 20 -48 4 -98 -40 -125 -25 -15 -50 -19 -128 -19 l-98
0 0 118 c-1 64 -3 143 -7 174 -8 85 -6 88 79 88 40 0 89 -5 109 -10z m619 -28
c0 -31 -14 -55 -90 -156 l-91 -118 93 3 93 4 3 -37 3 -38 -140 0 -141 0 0 38
c0 31 15 56 85 150 47 63 85 115 85 115 0 1 -37 1 -83 -1 l-84 -3 5 33 c3 18
9 36 14 39 4 3 62 6 128 7 l120 2 0 -38z m-1490 -78 c58 -23 84 -70 78 -140
-3 -39 -11 -61 -29 -80 -58 -63 -143 -67 -203 -10 -92 86 -32 236 96 245 10 0
36 -6 58 -15z m589 -2 c40 -22 71 -73 71 -119 l0 -32 -101 -3 -100 -3 21 -22
c25 -28 75 -30 102 -6 18 16 20 16 40 -4 26 -27 19 -45 -25 -66 -44 -21 -80
-21 -124 0 -48 22 -73 66 -73 128 0 112 97 176 189 127z m731 8 c0 -6 -12 -30
-27 -54 -23 -36 -31 -42 -48 -35 -11 4 -14 8 -7 8 6 1 12 11 12 22 0 12 11 32
26 45 26 25 44 31 44 14z m-245 -96 c30 -93 30 -94 37 -57 4 21 15 63 26 93
18 54 20 55 60 58 24 2 42 -1 42 -7 0 -28 -126 -328 -147 -349 -17 -17 -32
-22 -56 -20 -28 3 -32 7 -35 36 -3 28 0 32 21 32 29 0 54 44 37 65 -17 20 -99
233 -92 239 3 4 21 6 41 6 l36 0 30 -96z"/>
<path d="M1230 1090 c-26 -26 -26 -70 1 -104 23 -29 54 -33 87 -10 17 12 22
25 22 59 0 34 -5 47 -22 59 -31 22 -64 20 -88 -4z m78 -52 c-2 -28 -8 -34 -30
-36 -26 -3 -28 -1 -28 32 0 33 2 36 31 36 28 0 30 -2 27 -32z"/>
<path d="M1800 1165 l0 -45 43 0 c48 0 67 13 67 47 0 27 -27 43 -74 43 -36 0
-36 0 -36 -45z"/>
<path d="M1800 1013 l0 -48 52 4 c61 4 78 14 78 47 0 30 -27 44 -84 44 l-46 0
0 -47z m85 -4 c-8 -12 -42 -12 -50 0 -3 5 5 11 17 13 28 5 40 0 33 -13z"/>
<path d="M942 1093 c-48 -41 -19 -133 41 -133 33 0 67 40 67 78 0 61 -63 93
-108 55z m73 -55 c-1 -13 -3 -27 -4 -31 0 -5 -13 -7 -28 -5 -23 2 -29 8 -31
35 -2 24 1 32 15 35 28 7 51 -9 48 -34z"/>
<path d="M1538 1109 c-10 -5 -22 -19 -28 -29 -10 -19 -7 -20 55 -20 71 0 85
15 43 44 -26 18 -46 20 -70 5z"/>
</g>
</svg>
